# xmcd
#
# Track frame offsets: 
#        150
#        16729
#        33986
#        51238
#        66647
#        84450
#        102851
#        117833
#        132102
#        148922
#        167910
#
# Disc length: 2472 seconds
#
# Revision: 4
# Processed by: cddbd v1.5.2PL0 Copyright (c) Steve Scherf et al.
# Submitted via: ExactAudioCopy v1.0b3
#
DISCID=9709a60b
DTITLE=Luka Bloom - Between the Mountain and the Moon
DYEAR=2001
DGENRE=Country
TTITLE0=Monsoon
TTITLE1=Here and now
TTITLE2=perfect groove
TTITLE3=Love is a place I dream of
TTITLE4=Gabriel
TTITLE5=Soshin
TTITLE6=Moonslide
TTITLE7=As I waved goodbye
TTITLE8=I'm a bogman
TTITLE9=Rainbow day
TTITLE10=Hands of a farmer
EXTD=
EXTT0=
EXTT1=
EXTT2=
EXTT3=
EXTT4=
EXTT5=
EXTT6=
EXTT7=
EXTT8=
EXTT9=
EXTT10=
PLAYORDER=
